# xmcd
#
# Track frame offsets: 
#        150
#        16435
#        31324
#        64793
#        80095
#        94552
#        115522
#        126721
#        139583
#        160797
#
# Disc length: 2687 seconds
#
# Revision: 3
# Processed by: cddbd v1.5.2PL0 Copyright (c) Steve Scherf et al.
# Submitted via: ExactAudioCopy v1.0b3
#
DISCID=7e0a7d0a
DTITLE=Sophie Zelmani - Soul
DYEAR=2011
DGENRE=Pop
TTITLE0=Free now
TTITLE1=I wouldn't speak for him
TTITLE2=All about you
TTITLE3=For you
TTITLE4=My daughter
TTITLE5=I love you
TTITLE6=If you're still a dreamer
TTITLE7=Story of us
TTITLE8=Churchbell
TTITLE9=My soul remembers
EXTD=
EXTT0=
EXTT1=
EXTT2=
EXTT3=
EXTT4=
EXTT5=
EXTT6=
EXTT7=
EXTT8=
EXTT9=
PLAYORDER=
